<svg width="90" height="69" viewBox="0 0 90 69" fill="none" xmlns="http://www.w3.org/2000/svg">
<path d="M0.0285051 68.6199V48.3363C0.0285051 42.5767 1.15537 36.692 3.4091 30.682C5.66284 24.6721 8.63651 19.0064 12.3301 13.6851C16.0238 8.36379 20.0304 3.91893 24.35 0.350523L42.0043 10.774C38.4985 16.2832 35.6187 22.0427 33.365 28.0527C31.1738 34.0626 30.0783 40.7612 30.0783 48.1484V68.6199H0.0285051ZM47.4508 68.6199V48.3363C47.4508 42.5767 48.5777 36.692 50.8314 30.682C53.0851 24.6721 56.0588 19.0064 59.7524 13.6851C63.4461 8.36379 67.4527 3.91893 71.7723 0.350523L89.4266 10.774C85.9208 16.2832 83.041 22.0427 80.7873 28.0527C78.5961 34.0626 77.5006 40.7612 77.5006 48.1484V68.6199H47.4508Z" fill="#E0DFE4"/>
</svg>
