<svg width="101" height="15" viewBox="0 0 101 15" fill="none" xmlns="http://www.w3.org/2000/svg">
<path d="M9.31104 4.79736L9.36182 4.91943L9.49268 4.9292L13.9067 5.28271L10.5435 8.16455L10.4438 8.24951L10.4741 8.37744L11.5005 12.6841L7.72217 10.3765L7.60986 10.3081L7.49854 10.3765L3.71924 12.6841L4.74658 8.37744L4.77686 8.24951L4.67725 8.16455L1.31299 5.28271L5.72803 4.9292L5.85889 4.91943L5.90967 4.79736L7.60986 0.708496L9.31104 4.79736Z" fill="#F1C644" stroke="#F1C644" stroke-width="0.430869"/>
<path d="M30.6733 4.79736L30.7241 4.91943L30.855 4.9292L35.269 5.28271L31.9058 8.16455L31.8062 8.24951L31.8364 8.37744L32.8628 12.6841L29.0845 10.3765L28.9722 10.3081L28.8608 10.3765L25.0815 12.6841L26.1089 8.37744L26.1392 8.24951L26.0396 8.16455L22.6753 5.28271L27.0903 4.9292L27.2212 4.91943L27.272 4.79736L28.9722 0.708496L30.6733 4.79736Z" fill="#F1C644" stroke="#F1C644" stroke-width="0.430869"/>
<path d="M52.0356 4.79736L52.0864 4.91943L52.2173 4.9292L56.6313 5.28271L53.2681 8.16455L53.1685 8.24951L53.1987 8.37744L54.2251 12.6841L50.4468 10.3765L50.3345 10.3081L50.2231 10.3765L46.4438 12.6841L47.4712 8.37744L47.5015 8.24951L47.4019 8.16455L44.0376 5.28271L48.4526 4.9292L48.5835 4.91943L48.6343 4.79736L50.3345 0.708496L52.0356 4.79736Z" fill="#F1C644" stroke="#F1C644" stroke-width="0.430869"/>
<path d="M71.6973 0.147949L73.5967 4.71475L78.5269 5.11L74.7706 8.3277L75.9182 13.1388L71.6973 10.5606L67.4763 13.1388L68.6239 8.3277L64.8676 5.11L69.7978 4.71475L71.6973 0.147949Z" fill="#D4D4D4"/>
<path d="M93.0596 0.147949L94.959 4.71475L99.8893 5.11L96.1329 8.3277L97.2805 13.1388L93.0596 10.5606L88.8386 13.1388L89.9862 8.3277L86.2299 5.11L91.1601 4.71475L93.0596 0.147949Z" fill="#D4D4D4"/>
</svg>
